# xmcd
#
# Track frame offsets:
#	150
#	14135
#	31507
#	49390
#	71053
#	92446
#	108351
#	122488
#	137371
#	158187
#	176842
#	200108
#	213682
#	229905
#	243947
#	260843
#	284615
#	297830
#	310723
#
# Disc length: 4321 seconds
#
# Revision: 1
# Processed by: cddbd v1.5.2PL0 Copyright (c) Steve Scherf et al.
# Submitted via: EZCDAudioConverter 1.5.5.1
#
DISCID=1f10df13
DTITLE=John Denver - The Very Best of John Denver
DYEAR=1999
DGENRE=
TTITLE0=Take Me Home, Country Roads
TTITLE1=Eagles and Horses
TTITLE2=High, Wide and Handsome
TTITLE3=Hold Onto Me
TTITLE4=Whispering Jesse
TTITLE5=Never a Doubt
TTITLE6=Eagle and the Hawke
TTITLE7=I Watch You Sleeping
TTITLE8=For You
TTITLE9=Annie's Song
TTITLE10=Potter's Wheel
TTITLE11=Two Different Directions
TTITLE12=Sunshine on My Shoulders
TTITLE13=Deal With the Ladies
TTITLE14=Amazon
TTITLE15=Eclipse
TTITLE16=Tenderly Calling
TTITLE17=Islands
TTITLE18=Children of the Universe
EXTD=
EXTT0=
EXTT1=
EXTT2=
EXTT3=
EXTT4=
EXTT5=
EXTT6=
EXTT7=
EXTT8=
EXTT9=
EXTT10=
EXTT11=
EXTT12=
EXTT13=
EXTT14=
EXTT15=
EXTT16=
EXTT17=
EXTT18=
PLAYORDER=
